<?xml version="1.0" encoding="utf-8" standalone="no"?>
<!DOCTYPE svg PUBLIC "-//W3C//DTD SVG 1.1//EN"
  "http://www.w3.org/Graphics/SVG/1.1/DTD/svg11.dtd">
<svg xmlns:xlink="http://www.w3.org/1999/xlink" width="734.4pt" height="374.4pt" viewBox="0 0 734.4 374.4" xmlns="http://www.w3.org/2000/svg" version="1.1">
 <metadata>
  <rdf:RDF xmlns:dc="http://purl.org/dc/elements/1.1/" xmlns:cc="http://creativecommons.org/ns#" xmlns:rdf="http://www.w3.org/1999/02/22-rdf-syntax-ns#">
   <cc:Work>
    <dc:type rdf:resource="http://purl.org/dc/dcmitype/StillImage"/>
    <dc:date>2023-07-17T08:31:51.469513</dc:date>
    <dc:format>image/svg+xml</dc:format>
    <dc:creator>
     <cc:Agent>
      <dc:title>Matplotlib v3.7.1, https://matplotlib.org/</dc:title>
     </cc:Agent>
    </dc:creator>
   </cc:Work>
  </rdf:RDF>
 </metadata>
 <defs>
  <style type="text/css">*{stroke-linejoin: round; stroke-linecap: butt}</style>
 </defs>
 <g id="figure_1">
  <g id="patch_1">
   <path d="M 0 374.4 
L 734.4 374.4 
L 734.4 -0 
L 0 -0 
z
" style="fill: #ffffff"/>
  </g>
  <g id="axes_1">
   <g id="patch_2">
    <path d="M 199.481876 283.955756 
Q 178.475369 306.772826 158.226123 328.767367 
" clip-path="url(#pd195bb4f2b)" style="fill: none; stroke: #000000; stroke-linecap: round"/>
    <path d="M 162.40677 327.179224 
L 158.226123 328.767367 
L 159.463997 324.469965 
z
" clip-path="url(#pd195bb4f2b)" style="stroke: #000000; stroke-linecap: round"/>
   </g>
   <g id="patch_3">
    <path d="M 210.502344 284.540117 
Q 226.960405 306.771262 242.753228 328.10382 
" clip-path="url(#pd195bb4f2b)" style="fill: none; stroke: #000000; stroke-linecap: round"/>
    <path d="M 241.980642 323.698924 
L 242.753228 328.10382 
L 238.765759 326.078951 
z
" clip-path="url(#pd195bb4f2b)" style="stroke: #000000; stroke-linecap: round"/>
   </g>
   <g id="patch_4">
    <path d="M 205.350574 134.724907 
Q 205.350574 152.279487 205.350574 168.716032 
" clip-path="url(#pd195bb4f2b)" style="fill: none; stroke: #000000; stroke-linecap: round"/>
    <path d="M 207.350574 164.716032 
L 205.350574 168.716032 
L 203.350574 164.716032 
z
" clip-path="url(#pd195bb4f2b)" style="stroke: #000000; stroke-linecap: round"/>
   </g>
   <g id="patch_5">
    <path d="M 197.26043 129.161643 
Q 136.91724 152.278386 77.618096 174.995169 
" clip-path="url(#pd195bb4f2b)" style="fill: none; stroke: #000000; stroke-linecap: round"/>
    <path d="M 82.068859 175.431869 
L 77.618096 174.995169 
L 80.637914 171.696579 
z
" clip-path="url(#pd195bb4f2b)" style="stroke: #000000; stroke-linecap: round"/>
   </g>
   <g id="patch_6">
    <path d="M 198.663137 131.564871 
Q 173.490239 152.277285 149.180691 172.279329 
" clip-path="url(#pd195bb4f2b)" style="fill: none; stroke: #000000; stroke-linecap: round"/>
    <path d="M 153.540257 171.28224 
L 149.180691 172.279329 
L 150.998759 168.193423 
z
" clip-path="url(#pd195bb4f2b)" style="stroke: #000000; stroke-linecap: round"/>
   </g>
   <g id="patch_7">
    <path d="M 212.795317 130.492858 
Q 249.402611 152.278273 285.049132 173.491922 
" clip-path="url(#pd195bb4f2b)" style="fill: none; stroke: #000000; stroke-linecap: round"/>
    <path d="M 282.634575 169.727626 
L 285.049132 173.491922 
L 280.588962 173.164989 
z
" clip-path="url(#pd195bb4f2b)" style="stroke: #000000; stroke-linecap: round"/>
   </g>
   <g id="patch_8">
    <path d="M 205.350574 47.098354 
Q 205.350574 58.739856 205.350574 69.263325 
" clip-path="url(#pd195bb4f2b)" style="fill: none; stroke: #000000; stroke-linecap: round"/>
    <path d="M 207.350574 65.263325 
L 205.350574 69.263325 
L 203.350574 65.263325 
z
" clip-path="url(#pd195bb4f2b)" style="stroke: #000000; stroke-linecap: round"/>
   </g>
   <g id="patch_9">
    <path d="M 213.539494 41.248742 
Q 333.067331 82.25077 451.537625 122.890027 
" clip-path="url(#pd195bb4f2b)" style="fill: none; stroke: #000000; stroke-linecap: round"/>
    <path d="M 448.402993 119.700343 
L 451.537625 122.890027 
L 447.105099 123.483923 
z
" clip-path="url(#pd195bb4f2b)" style="stroke: #000000; stroke-linecap: round"/>
   </g>
   <g id="patch_10">
    <path d="M 213.430656 41.545608 
Q 353.846157 95.520541 493.218068 149.094323 
" clip-path="url(#pd195bb4f2b)" style="fill: none; stroke: #000000; stroke-linecap: round"/>
    <path d="M 490.202008 145.792296 
L 493.218068 149.094323 
L 488.76681 149.525955 
z
" clip-path="url(#pd195bb4f2b)" style="stroke: #000000; stroke-linecap: round"/>
   </g>
   <g id="patch_11">
    <path d="M 212.385145 43.486975 
Q 249.123679 69.84688 284.953816 95.555008 
" clip-path="url(#pd195bb4f2b)" style="fill: none; stroke: #000000; stroke-linecap: round"/>
    <path d="M 282.869763 91.59815 
L 284.953816 95.555008 
L 280.537898 94.848136 
z
" clip-path="url(#pd195bb4f2b)" style="stroke: #000000; stroke-linecap: round"/>
   </g>
   <g id="patch_12">
    <path d="M 198.770597 184.12531 
Q 175.152308 204.346282 152.383307 223.840129 
" clip-path="url(#pd195bb4f2b)" style="fill: none; stroke: #000000; stroke-linecap: round"/>
    <path d="M 156.722532 222.757943 
L 152.383307 223.840129 
L 154.121093 219.719437 
z
" clip-path="url(#pd195bb4f2b)" style="stroke: #000000; stroke-linecap: round"/>
   </g>
   <g id="patch_13">
    <path d="M 205.350574 187.155089 
Q 205.350574 204.346537 205.350574 220.419951 
" clip-path="url(#pd195bb4f2b)" style="fill: none; stroke: #000000; stroke-linecap: round"/>
    <path d="M 207.350574 216.419951 
L 205.350574 220.419951 
L 203.350574 216.419951 
z
" clip-path="url(#pd195bb4f2b)" style="stroke: #000000; stroke-linecap: round"/>
   </g>
   <g id="patch_14">
    <path d="M 205.350574 87.700327 
Q 205.350574 102.552053 205.350574 116.285744 
" clip-path="url(#pd195bb4f2b)" style="fill: none; stroke: #000000; stroke-linecap: round"/>
    <path d="M 207.350574 112.285744 
L 205.350574 116.285744 
L 203.350574 112.285744 
z
" clip-path="url(#pd195bb4f2b)" style="stroke: #000000; stroke-linecap: round"/>
   </g>
   <g id="patch_15">
    <path d="M 211.840559 84.778759 
Q 231.94655 102.551843 251.21487 119.584451 
" clip-path="url(#pd195bb4f2b)" style="fill: none; stroke: #000000; stroke-linecap: round"/>
    <path d="M 249.542528 115.436768 
L 251.21487 119.584451 
L 246.893319 118.433715 
z
" clip-path="url(#pd195bb4f2b)" style="stroke: #000000; stroke-linecap: round"/>
   </g>
   <g id="patch_16">
    <path d="M 296.775275 238.856271 
Q 296.775275 268.384975 296.775275 296.795646 
" clip-path="url(#pd195bb4f2b)" style="fill: none; stroke: #000000; stroke-linecap: round"/>
    <path d="M 298.775275 292.795646 
L 296.775275 296.795646 
L 294.775275 292.795646 
z
" clip-path="url(#pd195bb4f2b)" style="stroke: #000000; stroke-linecap: round"/>
   </g>
   <g id="patch_17">
    <path d="M 469.08164 128.554436 
Q 548.056519 152.277662 625.96063 175.679242 
" clip-path="url(#pd195bb4f2b)" style="fill: none; stroke: #000000; stroke-linecap: round"/>
    <path d="M 622.705116 172.613034 
L 625.96063 175.679242 
L 621.554356 176.443928 
z
" clip-path="url(#pd195bb4f2b)" style="stroke: #000000; stroke-linecap: round"/>
   </g>
   <g id="patch_18">
    <path d="M 455.319735 132.779285 
Q 439.45274 152.277699 424.291427 170.908925 
" clip-path="url(#pd195bb4f2b)" style="fill: none; stroke: #000000; stroke-linecap: round"/>
    <path d="M 428.36742 169.068741 
L 424.291427 170.908925 
L 425.264876 166.54402 
z
" clip-path="url(#pd195bb4f2b)" style="stroke: #000000; stroke-linecap: round"/>
   </g>
   <g id="patch_19">
    <path d="M 636.063674 187.123529 
Q 637.540302 204.348615 638.921437 220.459753 
" clip-path="url(#pd195bb4f2b)" style="fill: none; stroke: #000000; stroke-linecap: round"/>
    <path d="M 640.57248 216.303545 
L 638.921437 220.459753 
L 636.587097 216.645194 
z
" clip-path="url(#pd195bb4f2b)" style="stroke: #000000; stroke-linecap: round"/>
   </g>
   <g id="patch_20">
    <path d="M 504.385603 161.017922 
Q 511.761938 191.401221 518.874504 220.698047 
" clip-path="url(#pd195bb4f2b)" style="fill: none; stroke: #000000; stroke-linecap: round"/>
    <path d="M 519.874356 216.339114 
L 518.874504 220.698047 
L 515.987269 217.282806 
z
" clip-path="url(#pd195bb4f2b)" style="stroke: #000000; stroke-linecap: round"/>
   </g>
   <g id="patch_21">
    <path d="M 415.389742 186.713247 
Q 409.532191 204.346582 404.027098 220.918892 
" clip-path="url(#pd195bb4f2b)" style="fill: none; stroke: #000000; stroke-linecap: round"/>
    <path d="M 407.186108 217.75335 
L 404.027098 220.918892 
L 403.390071 216.492358 
z
" clip-path="url(#pd195bb4f2b)" style="stroke: #000000; stroke-linecap: round"/>
   </g>
   <g id="patch_22">
    <path d="M 205.350574 238.861341 
Q 205.350574 253.889404 205.350574 267.799433 
" clip-path="url(#pd195bb4f2b)" style="fill: none; stroke: #000000; stroke-linecap: round"/>
    <path d="M 207.350574 263.799433 
L 205.350574 267.799433 
L 203.350574 263.799433 
z
" clip-path="url(#pd195bb4f2b)" style="stroke: #000000; stroke-linecap: round"/>
   </g>
   <g id="patch_23">
    <path d="M 294.006521 187.136153 
Q 295.112992 204.345678 296.147728 220.439471 
" clip-path="url(#pd195bb4f2b)" style="fill: none; stroke: #000000; stroke-linecap: round"/>
    <path d="M 297.88696 216.31939 
L 296.147728 220.439471 
L 293.895202 216.576037 
z
" clip-path="url(#pd195bb4f2b)" style="stroke: #000000; stroke-linecap: round"/>
   </g>
   <g id="patch_24">
    <path d="M 401.850745 238.815071 
Q 403.437306 253.889485 404.906841 267.852007 
" clip-path="url(#pd195bb4f2b)" style="fill: none; stroke: #000000; stroke-linecap: round"/>
    <path d="M 406.477173 263.664638 
L 404.906841 267.852007 
L 402.499146 264.08332 
z
" clip-path="url(#pd195bb4f2b)" style="stroke: #000000; stroke-linecap: round"/>
   </g>
   <g id="patch_25">
    <path d="M 406.013042 286.243315 
Q 406.207895 306.773129 406.392137 326.184959 
" clip-path="url(#pd195bb4f2b)" style="fill: none; stroke: #000000; stroke-linecap: round"/>
    <path d="M 408.354084 322.166158 
L 406.392137 326.184959 
L 404.354264 322.204121 
z
" clip-path="url(#pd195bb4f2b)" style="stroke: #000000; stroke-linecap: round"/>
   </g>
   <g id="patch_26">
    <path d="M 618.375637 184.857507 
Q 600.417162 204.344781 583.216349 223.009894 
" clip-path="url(#pd195bb4f2b)" style="fill: none; stroke: #000000; stroke-linecap: round"/>
    <path d="M 587.397768 221.423787 
L 583.216349 223.009894 
L 584.456315 218.713094 
z
" clip-path="url(#pd195bb4f2b)" style="stroke: #000000; stroke-linecap: round"/>
   </g>
   <g id="patch_27">
    <path d="M 630.605402 184.37148 
Q 652.224973 204.347353 673.023375 223.56449 
" clip-path="url(#pd195bb4f2b)" style="fill: none; stroke: #000000; stroke-linecap: round"/>
    <path d="M 671.442742 219.380999 
L 673.023375 223.56449 
L 668.728202 222.318902 
z
" clip-path="url(#pd195bb4f2b)" style="stroke: #000000; stroke-linecap: round"/>
   </g>
   <g id="patch_28">
    <path d="M 562.954603 131.344068 
Q 590.166193 152.277679 616.491628 172.529579 
" clip-path="url(#pd195bb4f2b)" style="fill: none; stroke: #000000; stroke-linecap: round"/>
    <path d="M 614.540704 168.505415 
L 616.491628 172.529579 
L 612.101742 171.67582 
z
" clip-path="url(#pd195bb4f2b)" style="stroke: #000000; stroke-linecap: round"/>
   </g>
   <g id="patch_29">
    <path d="M 548.729099 130.623053 
Q 492.922645 165.204275 438.066554 199.196592 
" clip-path="url(#pd195bb4f2b)" style="fill: none; stroke: #000000; stroke-linecap: round"/>
    <path d="M 442.520144 198.789722 
L 438.066554 199.196592 
L 440.413211 195.389598 
z
" clip-path="url(#pd195bb4f2b)" style="stroke: #000000; stroke-linecap: round"/>
   </g>
   <g id="patch_30">
    <path d="M 557.879348 134.532905 
Q 561.629314 152.2745 565.148073 168.922228 
" clip-path="url(#pd195bb4f2b)" style="fill: none; stroke: #000000; stroke-linecap: round"/>
    <path d="M 566.277654 164.595099 
L 565.148073 168.922228 
L 562.364118 165.422286 
z
" clip-path="url(#pd195bb4f2b)" style="stroke: #000000; stroke-linecap: round"/>
   </g>
   <g id="patch_31">
    <path d="M 560.750946 184.308359 
Q 538.632708 204.348159 517.34301 223.637277 
" clip-path="url(#pd195bb4f2b)" style="fill: none; stroke: #000000; stroke-linecap: round"/>
    <path d="M 521.650141 222.433692 
L 517.34301 223.637277 
L 518.964421 219.469421 
z
" clip-path="url(#pd195bb4f2b)" style="stroke: #000000; stroke-linecap: round"/>
   </g>
   <g id="patch_32">
    <path d="M 426.030255 212.163835 
Q 412.301883 240.965616 399.054569 268.758149 
" clip-path="url(#pd195bb4f2b)" style="fill: none; stroke: #000000; stroke-linecap: round"/>
    <path d="M 402.581055 266.007895 
L 399.054569 268.758149 
L 398.970257 264.286808 
z
" clip-path="url(#pd195bb4f2b)" style="stroke: #000000; stroke-linecap: round"/>
   </g>
   <g id="patch_33">
    <path d="M 582.835779 236.200777 
Q 601.248423 253.89178 618.854857 270.80817 
" clip-path="url(#pd195bb4f2b)" style="fill: none; stroke: #000000; stroke-linecap: round"/>
    <path d="M 617.356141 266.594638 
L 618.854857 270.80817 
L 614.584802 269.479024 
z
" clip-path="url(#pd195bb4f2b)" style="stroke: #000000; stroke-linecap: round"/>
   </g>
   <g id="patch_34">
    <path d="M 623.829952 285.986767 
Q 618.701501 306.768925 613.840914 326.465611 
" clip-path="url(#pd195bb4f2b)" style="fill: none; stroke: #000000; stroke-linecap: round"/>
    <path d="M 616.741003 323.061279 
L 613.840914 326.465611 
L 612.857502 322.10294 
z
" clip-path="url(#pd195bb4f2b)" style="stroke: #000000; stroke-linecap: round"/>
   </g>
   <g id="patch_35">
    <path d="M 400.717744 283.955756 
Q 421.724251 306.772826 441.973496 328.767367 
" clip-path="url(#pd195bb4f2b)" style="fill: none; stroke: #000000; stroke-linecap: round"/>
    <path d="M 440.735623 324.469965 
L 441.973496 328.767367 
L 437.79285 327.179224 
z
" clip-path="url(#pd195bb4f2b)" style="stroke: #000000; stroke-linecap: round"/>
   </g>
   <g id="PathCollection_1">
    <defs>
     <path id="mcbcf76465f" d="M 0 8.660254 
C 2.296726 8.660254 4.499694 7.747755 6.123724 6.123724 
C 7.747755 4.499694 8.660254 2.296726 8.660254 0 
C 8.660254 -2.296726 7.747755 -4.499694 6.123724 -6.123724 
C 4.499694 -7.747755 2.296726 -8.660254 0 -8.660254 
C -2.296726 -8.660254 -4.499694 -7.747755 -6.123724 -6.123724 
C -7.747755 -4.499694 -8.660254 -2.296726 -8.660254 0 
C -8.660254 2.296726 -7.747755 4.499694 -6.123724 6.123724 
C -4.499694 7.747755 -2.296726 8.660254 0 8.660254 
z
" style="stroke: #0000ff"/>
    </defs>
    <g clip-path="url(#pd195bb4f2b)">
     <use xlink:href="#mcbcf76465f" x="205.350574" y="277.581231" style="fill: #0000ff; stroke: #0000ff"/>
     <use xlink:href="#mcbcf76465f" x="205.350574" y="126.062407" style="fill: #0000ff; stroke: #0000ff"/>
     <use xlink:href="#mcbcf76465f" x="151.603931" y="335.960331" style="fill: #0000ff; stroke: #0000ff"/>
     <use xlink:href="#mcbcf76465f" x="248.569524" y="335.960331" style="fill: #0000ff; stroke: #0000ff"/>
     <use xlink:href="#mcbcf76465f" x="205.350574" y="38.439669" style="fill: #0000ff; stroke: #0000ff"/>
     <use xlink:href="#mcbcf76465f" x="205.350574" y="178.491814" style="fill: #0000ff; stroke: #0000ff"/>
     <use xlink:href="#mcbcf76465f" x="205.350574" y="79.04181" style="fill: #0000ff; stroke: #0000ff"/>
     <use xlink:href="#mcbcf76465f" x="521.181361" y="230.200047" style="fill: #0000ff; stroke: #0000ff"/>
     <use xlink:href="#mcbcf76465f" x="144.954862" y="230.200047" style="fill: #0000ff; stroke: #0000ff"/>
     <use xlink:href="#mcbcf76465f" x="68.490566" y="178.491814" style="fill: #0000ff; stroke: #0000ff"/>
     <use xlink:href="#mcbcf76465f" x="296.775275" y="230.200047" style="fill: #0000ff; stroke: #0000ff"/>
     <use xlink:href="#mcbcf76465f" x="296.775275" y="306.572458" style="fill: #0000ff; stroke: #0000ff"/>
     <use xlink:href="#mcbcf76465f" x="460.785649" y="126.062407" style="fill: #0000ff; stroke: #0000ff"/>
     <use xlink:href="#mcbcf76465f" x="258.543127" y="126.062407" style="fill: #0000ff; stroke: #0000ff"/>
     <use xlink:href="#mcbcf76465f" x="141.630327" y="178.491814" style="fill: #0000ff; stroke: #0000ff"/>
     <use xlink:href="#mcbcf76465f" x="639.756429" y="230.200047" style="fill: #0000ff; stroke: #0000ff"/>
     <use xlink:href="#mcbcf76465f" x="635.323716" y="178.491814" style="fill: #0000ff; stroke: #0000ff"/>
     <use xlink:href="#mcbcf76465f" x="502.342332" y="152.601639" style="fill: #0000ff; stroke: #0000ff"/>
     <use xlink:href="#mcbcf76465f" x="418.120788" y="178.491814" style="fill: #0000ff; stroke: #0000ff"/>
     <use xlink:href="#mcbcf76465f" x="205.350574" y="230.200047" style="fill: #0000ff; stroke: #0000ff"/>
     <use xlink:href="#mcbcf76465f" x="406.484917" y="335.960331" style="fill: #0000ff; stroke: #0000ff"/>
     <use xlink:href="#mcbcf76465f" x="293.450741" y="178.491814" style="fill: #0000ff; stroke: #0000ff"/>
     <use xlink:href="#mcbcf76465f" x="400.944026" y="230.200047" style="fill: #0000ff; stroke: #0000ff"/>
     <use xlink:href="#mcbcf76465f" x="405.930828" y="277.581231" style="fill: #0000ff; stroke: #0000ff"/>
     <use xlink:href="#mcbcf76465f" x="292.896652" y="101.253994" style="fill: #0000ff; stroke: #0000ff"/>
    </g>
   </g>
   <g id="PathCollection_2">
    <defs>
     <path id="m40445d73ac" d="M 0 8.660254 
C 2.296726 8.660254 4.499694 7.747755 6.123724 6.123724 
C 7.747755 4.499694 8.660254 2.296726 8.660254 0 
C 8.660254 -2.296726 7.747755 -4.499694 6.123724 -6.123724 
C 4.499694 -7.747755 2.296726 -8.660254 0 -8.660254 
C -2.296726 -8.660254 -4.499694 -7.747755 -6.123724 -6.123724 
C -7.747755 -4.499694 -8.660254 -2.296726 -8.660254 0 
C -8.660254 2.296726 -7.747755 4.499694 -6.123724 6.123724 
C -4.499694 7.747755 -2.296726 8.660254 0 8.660254 
z
" style="stroke: #ff8c00"/>
    </defs>
    <g clip-path="url(#pd195bb4f2b)">
     <use xlink:href="#m40445d73ac" x="624.241934" y="178.491814" style="fill: #ff8c00; stroke: #ff8c00"/>
     <use xlink:href="#m40445d73ac" x="510.099579" y="230.200047" style="fill: #ff8c00; stroke: #ff8c00"/>
     <use xlink:href="#m40445d73ac" x="556.088974" y="126.062407" style="fill: #ff8c00; stroke: #ff8c00"/>
     <use xlink:href="#m40445d73ac" x="567.170756" y="178.491814" style="fill: #ff8c00; stroke: #ff8c00"/>
     <use xlink:href="#m40445d73ac" x="429.756659" y="204.345931" style="fill: #ff8c00; stroke: #ff8c00"/>
     <use xlink:href="#m40445d73ac" x="576.590271" y="230.200047" style="fill: #ff8c00; stroke: #ff8c00"/>
     <use xlink:href="#m40445d73ac" x="625.904201" y="277.581231" style="fill: #ff8c00; stroke: #ff8c00"/>
     <use xlink:href="#m40445d73ac" x="448.595689" y="335.960331" style="fill: #ff8c00; stroke: #ff8c00"/>
     <use xlink:href="#m40445d73ac" x="680.204933" y="230.200047" style="fill: #ff8c00; stroke: #ff8c00"/>
     <use xlink:href="#m40445d73ac" x="394.849046" y="277.581231" style="fill: #ff8c00; stroke: #ff8c00"/>
     <use xlink:href="#m40445d73ac" x="611.497884" y="335.960331" style="fill: #ff8c00; stroke: #ff8c00"/>
    </g>
   </g>
  </g>
 </g>
 <defs>
  <clipPath id="pd195bb4f2b">
   <rect x="7.2" y="7.2" width="720" height="360"/>
  </clipPath>
 </defs>
</svg>
